<svg width="81" height="21" viewBox="0 0 81 21" fill="none" xmlns="http://www.w3.org/2000/svg">
<path d="M19.88 21H10.34C4.37 21 0.0200001 17.07 0.0200001 11.25C0.0200001 5.43 4.37 1.5 10.34 1.5H19.88V6.51H9.98C7.25 6.51 5.24 8.43 5.24 11.25C5.24 14.04 7.25 15.96 9.98 15.96H19.88V21ZM27.6577 21H22.6477V6.03H27.6577V21ZM25.5277 4.56H24.8377C23.5177 4.56 22.5577 3.72 22.5577 2.37C22.5577 1.08 23.5177 0.239999 24.8377 0.239999H25.5277C26.8477 0.239999 27.7777 1.08 27.7777 2.37C27.7777 3.72 26.8477 4.56 25.5277 4.56ZM42.1665 21H36.9165V6.51H29.7465V1.5H49.3365V6.51H42.1665V21ZM56.4273 21H51.4173V6.03H56.4273V21ZM54.2973 4.56H53.6073C52.2873 4.56 51.3273 3.72 51.3273 2.37C51.3273 1.08 52.2873 0.239999 53.6073 0.239999H54.2973C55.6173 0.239999 56.5473 1.08 56.5473 2.37C56.5473 3.72 55.6173 4.56 54.2973 4.56ZM73.906 21H59.086V15.96H73.666C74.416 15.96 74.956 15.48 74.956 14.64C74.956 13.8 74.416 13.29 73.666 13.29H65.086C61.456 13.29 58.846 10.89 58.846 7.41C58.846 3.87 61.456 1.5 65.086 1.5H79.906V6.51H65.326C64.576 6.51 64.066 6.96 64.066 7.8C64.066 8.61 64.576 9.12 65.326 9.12H73.906C77.566 9.12 80.176 11.55 80.176 15.03C80.176 18.63 77.566 21 73.906 21Z" fill="white"/>
</svg>
